# xmcd
#
# Track frame offsets: 
#        150
#        16350
#        37274
#
# Disc length: 706 seconds
#
# Revision: 2
# Processed by: cddbd v1.5.2PL0 Copyright (c) Steve Scherf et al.
# Submitted via: ExactAudioCopy v1.3
#
DISCID=2002c003
DTITLE=Michael  Buble - Everything
DYEAR=2007
DGENRE=POP
TTITLE0=Everything
TTITLE1=These Foolish Things
TTITLE2=Everything(Alternate Mix)
EXTD=
EXTT0=
EXTT1=
EXTT2=
PLAYORDER=
